<svg xmlns="http://www.w3.org/2000/svg" width="256" height="256"><path fill-opacity=".016" d="M0 128.004v128.004l128.25-.254 128.25-.254.254-127.75L257.008 0H0v128.004m.485.496c0 70.4.119 99.053.265 63.672.146-35.38.146-92.98 0-128C.604 29.153.485 58.1.485 128.5" fill="#212121" fill-rule="evenodd"/><path fill-opacity=".087" d="M106.5 33.152c-14.51 4.808-20.088 12.8-21.159 30.313l-.639 10.444-16.101.428c-22.26.592-26.651 1.533-33.126 7.102-1.636 1.407-3.249 2.559-3.583 2.56-1.203.002-7.512 10.594-8.937 15.001-2.135 6.602-2.146 97.343-.013 104 2.27 7.086 10.361 17.994 13.35 17.999.435 0 1.711.857 2.834 1.904 1.124 1.047 3.917 2.237 6.208 2.646 5.438.969 162.894.969 168.332 0 2.291-.409 5.084-1.599 6.208-2.646 1.123-1.047 2.399-1.904 2.834-1.904 2.989-.005 11.08-10.913 13.35-17.999 2.133-6.657 2.122-97.398-.013-104-1.425-4.407-7.734-14.999-8.937-15.001-.334-.001-1.947-1.153-3.583-2.56-6.475-5.569-10.866-6.51-33.126-7.102l-16.101-.428-.639-10.444c-1.083-17.698-6.733-25.662-21.558-30.383-4.267-1.358-41.462-1.301-45.601.07m4.107 25.43c-.334.87-.607 4.695-.607 8.5V74h39v-6.918C149 56.241 150.468 57 129.5 57c-15.752 0-18.37.219-18.893 1.582M49.5 101.41l-3 2.401v94.304l2.5 1.92c2.416 1.856 5.111 1.921 80.5 1.921s78.084-.065 80.5-1.921l2.5-1.92v-94.304l-3-2.401-3-2.4h-154l-3 2.4m74 11.536c-1.1.502-3.258.945-4.795.984-4.552.114-16.719 9.006-20.803 15.202-1.946 2.952-3.909 6.268-4.362 7.368-1.054 2.556-2.668 11.247-2.693 14.5-.052 6.718 4.11 20 6.267 20 .487 0 .887.563.887 1.25.003 3.254 13.442 13.71 19.499 15.171 9.151 2.207 14.678 2.205 24-.01 6.034-1.434 19.496-11.901 19.499-15.161 0-.687.4-1.25.887-1.25 2.157 0 6.319-13.282 6.267-20-.025-3.253-1.639-11.944-2.693-14.5-.453-1.1-2.416-4.416-4.362-7.368-4.23-6.418-15.515-14.518-21.598-15.503-8.152-1.319-14.055-1.571-16-.683m-2.275 26.657c-3.35 2.64-6.225 8.035-6.225 11.681 0 3.051 4.476 10.098 7.413 11.669 1.418.759 4.607 1.38 7.087 1.38 5.901 0 9.125-1.836 12.083-6.884 2.808-4.792 2.972-6.875.929-11.767-3.524-8.434-14.369-11.531-21.287-6.079" fill="#212121" fill-rule="evenodd"/><path fill-opacity=".437" d="M111 32.976c-.825.546-2.85 1.003-4.5 1.014-3.797.025-12.021 6.125-15.553 11.537C87.269 51.162 86 56.476 86 66.246v8.513l-18.75.489c-11.777.308-20.052.974-22.25 1.793-9.919 3.694-19.566 13.549-21.507 21.97-.442 1.919-.972 24.456-1.177 50.082-.411 51.445-.21 53.675 5.656 62.7 3.779 5.813 13.218 12.122 20.358 13.605 7.139 1.484 155.201 1.484 162.34 0 7.14-1.483 16.579-7.792 20.358-13.605 5.866-9.025 6.067-11.255 5.656-62.7-.205-25.626-.735-48.163-1.177-50.082-1.941-8.421-11.588-18.276-21.507-21.97-2.198-.819-10.473-1.485-22.25-1.793L173 74.759v-8.513c0-9.77-1.269-15.084-4.947-20.719-3.534-5.414-11.421-11.188-16.45-12.042-6.996-1.189-38.972-1.59-40.603-.509m-.429 24.595c-1.164 1.165-1.571 3.626-1.571 9.5V75h41v-7.929C150 55.696 150.562 56 129.5 56c-14.446 0-17.621.264-18.929 1.571M49.75 100.08c-4.613 2.687-4.75 4.162-4.746 51.12.003 41.702.115 44.482 1.896 47.404 1.252 2.053 2.987 3.323 5.122 3.75 4.215.843 150.741.843 154.956 0 2.135-.427 3.87-1.697 5.122-3.75 1.781-2.922 1.893-5.702 1.896-47.404.004-47.266-.124-48.593-4.941-51.17-2.643-1.415-156.873-1.366-159.305.05M127 112.972c-.825.548-2.941 1.004-4.703 1.013-6.963.033-18.258 7.44-23.876 15.658-4.832 7.068-6.791 14.531-6.131 23.357.701 9.381 1.488 11.766 6.215 18.823 5.016 7.491 14.52 14.418 21.495 15.669 17.49 3.137 31.541-2.3 40.495-15.669 4.727-7.057 5.514-9.442 6.215-18.823.994-13.292-4.913-25.705-15.673-32.935-6.61-4.442-8.157-5.116-14.037-6.113-2.475-.42-5.4-1.036-6.5-1.37-1.1-.335-2.675-.159-3.5.39m-1.83 23.702c-1.282.267-4.094 2.25-6.25 4.406-3.566 3.566-3.92 4.394-3.916 9.17.005 6.796 2.674 11.247 8.267 13.786 2.326 1.056 5.129 1.92 6.229 1.92 1.1 0 3.903-.864 6.229-1.92 10.316-4.683 11.38-19.148 1.867-25.381-2.7-1.769-8.788-2.739-12.426-1.981" fill="#212121" fill-rule="evenodd"/><path fill-opacity=".783" d="M111.5 34c-.34.55-2.198 1-4.129 1-6.626 0-16.761 9.409-18.85 17.5-.427 1.65-1.056 7.725-1.398 13.5L86.5 76.5l-20 .591c-11 .325-21.169.927-22.599 1.338-7.321 2.103-17.93 13.638-19.425 21.121-1.024 5.128-1.116 98.019-.1 101.95.824 3.191 2.759 7.671 3.671 8.5.302.275 1.535 1.912 2.74 3.639 3.072 4.401 11.566 9.578 17.609 10.732 6.817 1.301 155.391 1.301 162.208 0 6.043-1.154 14.537-6.331 17.609-10.732 1.205-1.727 2.438-3.364 2.74-3.639.912-.829 2.847-5.309 3.671-8.5 1.016-3.931.924-96.822-.1-101.95-1.495-7.483-12.104-19.018-19.425-21.121-1.43-.411-11.599-1.013-22.599-1.338l-20-.591-.623-10.5c-.342-5.775-.971-11.85-1.398-13.5-2.089-8.091-12.224-17.5-18.85-17.5-1.931 0-3.789-.45-4.129-1-.374-.605-7.491-1-18-1s-17.626.395-18 1m-.901 22.101c-2.592 2.039-2.663 2.373-2.385 11.25l.286 9.149h42l.286-9.149c.278-8.877.207-9.211-2.385-11.25C145.937 54.162 144.476 54 129.5 54c-14.976 0-16.437.162-18.901 2.101M48.635 99.476c-4.568 3.46-4.635 4.211-4.63 51.888l.005 45.136 2.286 2.857c4.536 5.668 3.715 5.613 83.204 5.613 79.489 0 78.668.055 83.204-5.613l2.286-2.857.005-45.136c.005-47.677-.062-48.428-4.63-51.888-2.789-2.112-158.941-2.112-161.73 0M127.5 114c-.34.55-2.59 1-5 1s-4.66.45-5 1c-.34.55-1.298 1-2.129 1-3.485 0-16.219 10.601-16.33 13.595-.023.602-.895 1.868-1.939 2.813-2.19 1.981-3.067 5.933-3.764 16.962-.314 4.959-.098 8.27.582 8.95.594.594 1.08 2.119 1.08 3.39 0 1.27 1.9 5.171 4.222 8.669 4.917 7.406 13.546 13.638 20.719 14.963 17.338 3.202 31.245-2.021 39.837-14.963 2.322-3.498 4.222-7.399 4.222-8.669 0-1.271.486-2.796 1.08-3.39.68-.68.896-3.991.582-8.95-.697-11.029-1.574-14.981-3.764-16.962-1.044-.945-1.916-2.211-1.939-2.813-.111-2.994-12.845-13.595-16.33-13.595-.831 0-1.789-.45-2.129-1-.34-.55-2.59-1-5-1s-4.66-.45-5-1c-.34-.55-1.24-1-2-1s-1.66.45-2 1m.446 21.054c-.795.504-2.459.922-3.696.931-1.237.008-2.25.465-2.25 1.015 0 .55-.615 1-1.367 1s-2.552 1.79-4 3.979c-3.912 5.911-3.728 13.237.461 18.319 3.185 3.864 8.438 6.702 12.406 6.702s9.221-2.838 12.406-6.702c4.189-5.082 4.373-12.408.461-18.319-1.448-2.189-3.248-3.979-4-3.979-.752 0-1.367-.45-1.367-1s-.93-1-2.066-1c-1.136 0-2.848-.419-3.804-.93-1.054-.565-2.307-.571-3.184-.016" fill="#212121" fill-rule="evenodd"/></svg>